<?xml version="1.0" encoding="UTF-8" standalone="no"?>
<svg
   width="32"
   height="32"
   viewBox="0 0 24 24"
   version="1.1"
   id="svg188"
   sodipodi:docname="autonomars.svg"
   inkscape:export-filename="MdiRoverIcon--.svg"
   inkscape:export-xdpi="96"
   inkscape:export-ydpi="96"
   xml:space="preserve"
   inkscape:version="1.2.2 (b0a8486541, 2022-12-01)"
   xmlns:inkscape="http://www.inkscape.org/namespaces/inkscape"
   xmlns:sodipodi="http://sodipodi.sourceforge.net/DTD/sodipodi-0.dtd"
   xmlns:xlink="http://www.w3.org/1999/xlink"
   xmlns="http://www.w3.org/2000/svg"
   xmlns:svg="http://www.w3.org/2000/svg"><defs
     id="defs192"><linearGradient
       inkscape:collect="always"
       id="linearGradient29892"><stop
         style="stop-color:#000000;stop-opacity:1;"
         offset="0"
         id="stop29888" /><stop
         style="stop-color:#000000;stop-opacity:0;"
         offset="1"
         id="stop29890" /></linearGradient><linearGradient
       inkscape:collect="always"
       id="linearGradient28257"><stop
         style="stop-color:#7365ff;stop-opacity:1;"
         offset="0.43193826"
         id="stop28253" /><stop
         style="stop-color:#ffffff;stop-opacity:0;"
         offset="1"
         id="stop28255" /></linearGradient><linearGradient
       inkscape:collect="always"
       id="linearGradient25299"><stop
         style="stop-color:#4000b8;stop-opacity:1;"
         offset="0"
         id="stop25295" /><stop
         style="stop-color:#ffffff;stop-opacity:1;"
         offset="0.44211507"
         id="stop26029" /><stop
         style="stop-color:#ffffff;stop-opacity:1;"
         offset="0.72105753"
         id="stop26031" /><stop
         style="stop-color:#9c9c9c;stop-opacity:1;"
         offset="1"
         id="stop25297" /></linearGradient><linearGradient
       inkscape:collect="always"
       id="linearGradient12396"><stop
         style="stop-color:#ffffff;stop-opacity:0;"
         offset="0"
         id="stop12390" /><stop
         style="stop-color:#b7b7b7;stop-opacity:1;"
         offset="1"
         id="stop12394" /></linearGradient><linearGradient
       inkscape:collect="always"
       id="linearGradient11337"><stop
         style="stop-color:#000000;stop-opacity:1;"
         offset="0"
         id="stop11333" /><stop
         style="stop-color:#ffffff;stop-opacity:0;"
         offset="1"
         id="stop11335" /></linearGradient><linearGradient
       id="linearGradient2924"
       inkscape:swatch="solid"><stop
         style="stop-color:#b3b3b3;stop-opacity:1;"
         offset="0"
         id="stop2922" /></linearGradient><linearGradient
       inkscape:collect="always"
       xlink:href="#linearGradient12396"
       id="linearGradient9151"
       x1="1.0000004"
       y1="5.8721242"
       x2="23"
       y2="5.8721242"
       gradientUnits="userSpaceOnUse"
       spreadMethod="reflect"
       gradientTransform="matrix(0.95459819,0,0,0.95459819,0.54482258,-0.37018056)" /><linearGradient
       inkscape:collect="always"
       xlink:href="#linearGradient11337"
       id="linearGradient11339"
       x1="1"
       y1="12"
       x2="23"
       y2="12"
       gradientUnits="userSpaceOnUse"
       gradientTransform="matrix(0.95459819,0,0,0.95459819,0.5448232,0.46234823)" /><linearGradient
       inkscape:collect="always"
       xlink:href="#linearGradient25299"
       id="linearGradient25301"
       x1="1.140625"
       y1="12.574219"
       x2="23.140625"
       y2="12.574219"
       gradientUnits="userSpaceOnUse"
       gradientTransform="matrix(0.95459812,0,0,0.95459736,0.41058292,-0.08578943)" /><linearGradient
       inkscape:collect="always"
       xlink:href="#linearGradient28257"
       id="linearGradient28259"
       x1="14.573679"
       y1="7.7875662"
       x2="6.7779012"
       y2="4.2076039"
       gradientUnits="userSpaceOnUse"
       gradientTransform="matrix(1.8684831,0,0,1.8684831,-3.23618,0.55538074)" /><linearGradient
       inkscape:collect="always"
       xlink:href="#linearGradient29892"
       id="linearGradient29894"
       x1="3.4456346"
       y1="9.6239328"
       x2="8.6820002"
       y2="1.318"
       gradientUnits="userSpaceOnUse" /><linearGradient
       inkscape:collect="always"
       xlink:href="#linearGradient29892"
       id="linearGradient29900"
       gradientUnits="userSpaceOnUse"
       x1="3.4456346"
       y1="9.6239328"
       x2="8.6820002"
       y2="1.318" /></defs><sodipodi:namedview
     id="namedview190"
     pagecolor="#ffffff"
     bordercolor="#000000"
     borderopacity="0.25"
     inkscape:showpageshadow="2"
     inkscape:pageopacity="0.0"
     inkscape:pagecheckerboard="0"
     inkscape:deskcolor="#d1d1d1"
     showgrid="false"
     inkscape:zoom="22.627417"
     inkscape:cx="12.683728"
     inkscape:cy="16.550718"
     inkscape:window-width="1862"
     inkscape:window-height="1011"
     inkscape:window-x="58"
     inkscape:window-y="32"
     inkscape:window-maximized="1"
     inkscape:current-layer="svg188" /><g
     inkscape:groupmode="layer"
     id="layer1"
     inkscape:label="Layer 1"
     style="display:none"><rect
       style="opacity:1;fill:#000000;fill-opacity:1;fill-rule:evenodd;stroke:none;stroke-width:0.283465;stroke-linecap:square;stroke-linejoin:bevel;stroke-dasharray:2.26771, 0.566929;stroke-dashoffset:0;stroke-opacity:1;paint-order:stroke fill markers"
       id="rect21805"
       width="37.088882"
       height="24.405043"
       x="-10.095037"
       y="-0.22926152"
       ry="9.8397112" /></g><g
     id="g28251"
     transform="matrix(0.87985271,0,0,0.87985271,1.871898,7.3370014)"
     style="display:none"><path
       fill="currentColor"
       d="M 1.4994215,13.826716 V 5.2353391 H 12.954598 c 5.250292,0 9.545983,4.2956876 9.545983,9.5459739 v 1.909193 h -2.071479 a 2.8542485,2.8542461 0 0 1 -2.701512,1.909195 2.8542485,2.8542461 0 0 1 -2.701513,-1.909195 h -4.935272 a 4.7749001,4.774896 0 0 1 -8.5913835,-2.86379 m 4.7729909,-2.863793 c -1.5846332,0 -2.8637946,1.27916 -2.8637946,2.863793 0,1.584631 1.2791614,2.86379 2.8637946,2.86379 1.5846328,0 2.8637943,-1.279159 2.8637943,-2.86379 0,-1.584633 -1.2791615,-2.863793 -2.8637943,-2.863793 m 8.5913826,-0.954598 v 1.909195 h 5.011641 c -0.315018,-0.696856 -0.715949,-1.336437 -1.193248,-1.909195 z"
       id="path25286"
       style="display:inline;fill:url(#linearGradient25301);fill-opacity:1;stroke:#a699c0;stroke-width:0.671811;stroke-dasharray:none;stroke-opacity:1" /><path
       fill="currentColor"
       d="m 1.4994211,13.826723 a 4.7749001,4.7749001 0 0 0 8.5913829,2.863795 h 4.935273 a 2.8637946,2.8637946 0 0 0 2.701513,1.909196 c 1.250524,0 2.310128,-0.792316 2.701513,-1.909196 h 2.071478 v -1.909197 c 0,-5.2502898 -4.295692,-9.5459822 -9.545982,-9.5459822 H 1.4994211 V 13.826723 M 20.591385,14.781321 H 10.949943 A 4.7749001,4.7749001 0 0 0 3.4086174,10.00833 V 7.1445351 H 12.4773 c 2.481955,0 4.696623,1.1073341 6.204888,2.8637949 h -3.818393 v 1.909197 h 5.011641 c 0.400931,0.87823 0.639581,1.85192 0.715949,2.863794 M 6.272412,10.962928 c 1.584633,0 2.8637946,1.279162 2.8637946,2.863795 0,1.584633 -1.2791616,2.863795 -2.8637946,2.863795 -1.584633,0 -2.8637946,-1.279162 -2.8637946,-2.863795 0,-1.584633 1.2791616,-2.863795 2.8637946,-2.863795 z"
       id="path186-3"
       style="display:inline;opacity:0.677955;mix-blend-mode:normal;fill:url(#linearGradient9151);fill-opacity:1;fill-rule:evenodd;stroke:none;stroke-width:0.954598;stroke-opacity:0.000252877" /><path
       fill="currentColor"
       d="m 1.4994215,13.826723 a 4.7749002,4.7749002 0 0 0 8.5913835,2.863794 h 4.935272 a 2.8637946,2.8637946 0 0 0 2.701514,1.909196 c 1.250522,0 2.310126,-0.792316 2.701512,-1.909196 h 2.071478 v -1.909196 c 0,-5.2502899 -4.295692,-9.5459819 -9.545982,-9.5459819 H 1.4994215 V 13.826723 M 20.591385,14.781321 H 10.949943 A 4.7749002,4.7749002 0 0 0 3.4086178,10.008329 V 7.1445355 H 12.4773 c 2.481955,0 4.696623,1.107334 6.204889,2.8637935 h -3.818394 v 1.909197 h 5.011641 c 0.400931,0.878231 0.639581,1.851921 0.715949,2.863795 M 6.2724124,10.962928 c 1.5846331,0 2.8637947,1.279161 2.8637947,2.863795 0,1.584632 -1.2791616,2.863794 -2.8637947,2.863794 -1.584633,0 -2.8637946,-1.279162 -2.8637946,-2.863794 0,-1.584634 1.2791616,-2.863795 2.8637946,-2.863795 z"
       id="path186"
       style="display:inline;opacity:0;fill:url(#linearGradient11339);fill-opacity:1;fill-rule:evenodd;stroke:none;stroke-width:0.283465;stroke-linecap:square;stroke-linejoin:bevel;stroke-dasharray:2.26772, 0.566929;stroke-dashoffset:0;stroke-opacity:1;paint-order:stroke fill markers" /></g><path
     fill="currentColor"
     d="m 20.116136,3.9523502 -2.632533,2.6325336 v 0.1966243 l 2.632533,2.6325329 h 3.921492 v 2.184677 H 19.22042 L 17.483603,9.8618976 v 2.8291534 h -1.092335 c -1.206562,0 -2.184674,-0.978111 -2.184675,-2.184673 V 7.7755338 h -3.42993 c -0.0983,0.4041655 -0.262159,0.7864809 -0.480629,1.1469531 L 16.58789,20.337427 c 0,0 0.753278,0 1.356559,0 0.603281,0 2.184675,1.581392 2.184675,2.184673 0,0.603281 0,1.092338 0,1.092338 H 8.4002125 c 0,0 0,-0.489057 0,-1.092338 0,-0.603281 1.5813952,-2.184673 2.1846765,-2.184673 0.603281,0 1.011021,0 1.011021,0 L 6.4728556,11.052546 C 4.5069031,11.01928 2.8045342,9.6788329 2.3110481,7.7755338 1.7110068,5.4344005 3.1254817,3.0508381 5.4679037,2.4558476 7.7945824,1.8550625 10.175879,3.253255 10.776663,5.5908581 h 3.42993 V 2.8600125 c 1e-6,-1.2065622 0.978113,-2.18467364 2.184675,-2.18467381 h 1.092335 V 3.5044925 l 1.736817,-1.736818 h 4.817208 V 3.9523502 H 20.116136 M 6.5602415,4.4985203 c -1.2065632,-3e-7 -2.184676,0.9781125 -2.1846758,2.1846757 9e-7,1.2065624 0.9781134,2.1846739 2.1846758,2.1846736 1.2065623,2e-7 2.1846748,-0.9781113 2.1846757,-2.1846736 2e-7,-1.2065632 -0.9781125,-2.1846759 -2.1846757,-2.1846757 z"
     id="path29934"
     style="fill:url(#linearGradient28259);fill-opacity:1;stroke:none;stroke-width:0.561428;stroke-linecap:round;stroke-linejoin:bevel;stroke-dasharray:none;stroke-opacity:1"
     sodipodi:nodetypes="cccccccccsscccczzcczzccccccssccccccsssss" /><g
     id="g29523"
     transform="matrix(1.4079864,0,0,1.4080001,-1.407981,0.49860884)"
     style="fill:url(#linearGradient29894);fill-opacity:1"><path
       d="M 6.5,10 H 6 V 8.95 A 4.478,4.478 0 0 0 8.682,7.682 L 8.15,7.15 A 3.739,3.739 0 0 1 5.5,8.25 3.754,3.754 0 0 1 1.75,4.5 c 0,-1.034 0.42,-1.971 1.1,-2.65 L 2.318,1.318 A 4.486,4.486 0 0 0 1,4.5 C 1,6.814 2.753,8.698 5,8.95 V 10 H 4.5 a 0.5,0.5 0 1 0 0,1 h 2 a 0.5,0.5 0 0 0 0,-1 z"
       fill="currentColor"
       id="path29511"
       style="fill:url(#linearGradient29900);fill-opacity:1" /><path
       d="m 5.6209447,7.416937 a 3.0378817,3.0378817 0 1 0 0,-6.0757634 3.0378817,3.0378817 0 0 0 0,6.0757634 z M 4.9586866,2.0520379 5.5577568,2.800572 V 3.8176548 L 6.3026453,5.1676893 H 7.9090772 C 7.7025012,5.7655444 7.2747675,6.2516056 6.7182276,6.5359512 L 5.6209447,5.5942079 H 4.4057921 L 3.2295243,3.9902064 A 2.4193689,2.4193689 0 0 1 4.9586866,2.0520379 Z"
       fill="currentColor"
       id="path29513"
       style="fill:#7365ff;fill-opacity:1;stroke-width:1.21515" /></g></svg>
