<?xml version="1.0" encoding="UTF-8" standalone="no"?>
<svg
   width="32"
   height="32"
   viewBox="0 0 24 24"
   version="1.1"
   id="svg188"
   sodipodi:docname="autonomars.svg"
   inkscape:export-filename="../../../../Downloads/globe-arm-robot.svg"
   inkscape:export-xdpi="96"
   inkscape:export-ydpi="96"
   xml:space="preserve"
   inkscape:version="1.2.2 (b0a8486541, 2022-12-01)"
   xmlns:inkscape="http://www.inkscape.org/namespaces/inkscape"
   xmlns:sodipodi="http://sodipodi.sourceforge.net/DTD/sodipodi-0.dtd"
   xmlns:xlink="http://www.w3.org/1999/xlink"
   xmlns="http://www.w3.org/2000/svg"
   xmlns:svg="http://www.w3.org/2000/svg"><defs
     id="defs192"><linearGradient
       inkscape:collect="always"
       id="linearGradient7980"><stop
         style="stop-color:#000000;stop-opacity:1;"
         offset="0"
         id="stop7976" /><stop
         style="stop-color:#000000;stop-opacity:0;"
         offset="1"
         id="stop7978" /></linearGradient><linearGradient
       inkscape:collect="always"
       id="linearGradient3095"><stop
         style="stop-color:#000000;stop-opacity:1;"
         offset="0"
         id="stop3091" /><stop
         style="stop-color:#000000;stop-opacity:0;"
         offset="1"
         id="stop3093" /></linearGradient><linearGradient
       id="linearGradient2924"
       inkscape:swatch="solid"><stop
         style="stop-color:#b3b3b3;stop-opacity:1;"
         offset="0"
         id="stop2922" /></linearGradient><linearGradient
       inkscape:collect="always"
       xlink:href="#linearGradient3095"
       id="linearGradient3097"
       x1="15.570274"
       y1="10.436036"
       x2="10.170074"
       y2="8.835206"
       gradientUnits="userSpaceOnUse" /><linearGradient
       inkscape:collect="always"
       xlink:href="#linearGradient7980"
       id="linearGradient7982"
       x1="2.583063"
       y1="4.3790553"
       x2="9.3425579"
       y2="4.3653812"
       gradientUnits="userSpaceOnUse" /></defs><sodipodi:namedview
     id="namedview190"
     pagecolor="#ffffff"
     bordercolor="#000000"
     borderopacity="0.25"
     inkscape:showpageshadow="2"
     inkscape:pageopacity="0.0"
     inkscape:pagecheckerboard="0"
     inkscape:deskcolor="#d1d1d1"
     showgrid="false"
     inkscape:zoom="22.627417"
     inkscape:cx="12.683728"
     inkscape:cy="16.550718"
     inkscape:window-width="1862"
     inkscape:window-height="1011"
     inkscape:window-x="58"
     inkscape:window-y="32"
     inkscape:window-maximized="1"
     inkscape:current-layer="svg188" /><g
     inkscape:groupmode="layer"
     id="layer1"
     inkscape:label="Layer 1"
     style="display:none"><rect
       style="opacity:1;fill:#000000;fill-opacity:1;fill-rule:evenodd;stroke:none;stroke-width:0.283465;stroke-linecap:square;stroke-linejoin:bevel;stroke-dasharray:2.26771, 0.566929;stroke-dashoffset:0;stroke-opacity:1;paint-order:stroke fill markers"
       id="rect21805"
       width="37.088882"
       height="24.405043"
       x="-10.095037"
       y="-0.22926152"
       ry="9.8397112" /></g><path
     fill="currentColor"
     d="m 19.814619,3.9539226 -2.585471,2.5854709 v 0.1931092 l 2.585471,2.5854702 h 3.851386 V 11.463594 H 18.934916 L 17.229148,9.757823 v 2.778576 h -1.072807 c -1.184992,0 -2.145618,-0.960625 -2.145619,-2.145617 V 8.5366673 h -3.368611 c -0.09654,0.3969401 -0.257473,-0.055489 -0.472037,0.2985392 l 6.179374,11.2108715 h 1.332308 c 0.592495,0 2.145618,1.553121 2.145618,2.145617 v 1.07281 H 8.3081451 v -1.07281 c 0,-0.592496 1.553124,-2.145617 2.1456199,-2.145617 h 0.992947 L 6.4152442,10.927186 C 4.4844377,10.894515 2.8125026,9.578031 2.3278387,7.7087579 1.7385246,5.4094778 3.1277124,3.0685272 5.4282582,2.4841735 7.713342,1.8941289 10.052067,2.439416 10.642111,4.735229 h 3.368611 V 2.881113 c 0,-1.184992 0.960627,-2.14561748 2.145619,-2.14561765 h 1.072807 V 3.5140714 l 1.705768,-1.7057683 h 4.731089 V 3.9539226 H 19.814619 M 6.5010679,4.4903287 c -1.1849931,-3e-7 -2.1456198,0.9606264 -2.1456196,2.1456195 8e-7,1.1849922 0.9606273,2.1456177 2.1456196,2.1456174 1.1849921,2e-7 2.1456186,-0.9606253 2.1456195,-2.1456174 1e-7,-1.1849931 -0.9606265,-2.1456197 -2.1456195,-2.1456195 z"
     id="path29934"
     style="fill:url(#linearGradient3097);fill-opacity:1;stroke:none;stroke-width:0.551391;stroke-linecap:round;stroke-linejoin:bevel;stroke-dasharray:none;stroke-opacity:1"
     sodipodi:nodetypes="cccccccccsscccczzcczzccccccssccccccsssss" /><g
     id="g29523"
     transform="matrix(1.4079864,0,0,1.4080001,-1.407981,0.49860884)"
     style="fill:#000000;fill-opacity:1"><path
       d="M 6.5,10 H 6 V 8.95 A 4.478,4.478 0 0 0 8.682,7.682 L 8.15,7.15 A 3.739,3.739 0 0 1 5.5,8.25 3.754,3.754 0 0 1 1.75,4.5 c 0,-1.034 0.42,-1.971 1.1,-2.65 L 2.318,1.318 A 4.486,4.486 0 0 0 1,4.5 C 1,6.814 2.753,8.698 5,8.95 V 10 H 4.5 a 0.5,0.5 0 1 0 0,1 h 2 a 0.5,0.5 0 0 0 0,-1 z"
       fill="currentColor"
       id="path29511"
       style="fill:#000000;fill-opacity:1" /><path
       d="m 5.6209447,7.416937 a 3.0378817,3.0378817 0 1 0 0,-6.0757634 3.0378817,3.0378817 0 0 0 0,6.0757634 z M 4.9586866,2.0520379 5.5577568,2.800572 V 3.8176548 L 6.3026453,5.1676893 H 7.9090772 C 7.7025012,5.7655444 7.2747675,6.2516056 6.7182276,6.5359512 L 5.6209447,5.5942079 H 4.4057921 L 3.2295243,3.9902064 A 2.4193689,2.4193689 0 0 1 4.9586866,2.0520379 Z"
       fill="currentColor"
       id="path29513"
       style="fill:url(#linearGradient7982);fill-opacity:1;stroke-width:1.21515" /></g></svg>
