<?xml version="1.0" encoding="UTF-8" standalone="no"?>
<svg
   width="32"
   height="32"
   viewBox="0 0 24 24"
   version="1.1"
   id="svg188"
   sodipodi:docname="globe-arm-robot.blue.ink.svg"
   inkscape:export-filename="globe-arm-robot.svg"
   inkscape:export-xdpi="96"
   inkscape:export-ydpi="96"
   xml:space="preserve"
   inkscape:version="1.2.2 (b0a8486541, 2022-12-01)"
   xmlns:inkscape="http://www.inkscape.org/namespaces/inkscape"
   xmlns:sodipodi="http://sodipodi.sourceforge.net/DTD/sodipodi-0.dtd"
   xmlns:xlink="http://www.w3.org/1999/xlink"
   xmlns="http://www.w3.org/2000/svg"
   xmlns:svg="http://www.w3.org/2000/svg"><defs
     id="defs192"><linearGradient
       inkscape:collect="always"
       id="linearGradient1616"><stop
         style="stop-color:#0e1aff;stop-opacity:1;"
         offset="0.36694393"
         id="stop1612" /><stop
         style="stop-color:#0500ff;stop-opacity:0;"
         offset="1"
         id="stop1614" /></linearGradient><linearGradient
       inkscape:collect="always"
       id="linearGradient1443"><stop
         style="stop-color:#000000;stop-opacity:1;"
         offset="0"
         id="stop1439" /><stop
         style="stop-color:#000000;stop-opacity:0;"
         offset="1"
         id="stop1441" /></linearGradient><linearGradient
       inkscape:collect="always"
       id="linearGradient1435"><stop
         style="stop-color:#87ff7b;stop-opacity:1;"
         offset="0"
         id="stop1431" /><stop
         style="stop-color:#467bff;stop-opacity:1;"
         offset="1"
         id="stop1433" /></linearGradient><linearGradient
       inkscape:collect="always"
       id="linearGradient1427"><stop
         style="stop-color:#000000;stop-opacity:1;"
         offset="0"
         id="stop1423" /><stop
         style="stop-color:#000000;stop-opacity:0;"
         offset="1"
         id="stop1425" /></linearGradient><linearGradient
       inkscape:collect="always"
       id="linearGradient7980"><stop
         style="stop-color:#000000;stop-opacity:1;"
         offset="0"
         id="stop7976" /><stop
         style="stop-color:#000000;stop-opacity:0;"
         offset="1"
         id="stop7978" /></linearGradient><linearGradient
       id="linearGradient2924"
       inkscape:swatch="solid"><stop
         style="stop-color:#b3b3b3;stop-opacity:1;"
         offset="0"
         id="stop2922" /></linearGradient><linearGradient
       inkscape:collect="always"
       xlink:href="#linearGradient7980"
       id="linearGradient7982"
       x1="4.6205859"
       y1="4.4200788"
       x2="11.024541"
       y2="4.4200788"
       gradientUnits="userSpaceOnUse" /><linearGradient
       inkscape:collect="always"
       xlink:href="#linearGradient1427"
       id="linearGradient1429"
       x1="12.134505"
       y1="24"
       x2="11.908669"
       y2="2.9603364e-06"
       gradientUnits="userSpaceOnUse"
       gradientTransform="matrix(0.97326153,0,0,0.97326153,0.61805572,0.0236639)" /><linearGradient
       inkscape:collect="always"
       xlink:href="#linearGradient1435"
       id="linearGradient1437"
       x1="6.0432396"
       y1="23.123642"
       x2="18.356506"
       y2="6.4502029"
       gradientUnits="userSpaceOnUse"
       gradientTransform="matrix(0.97326153,0,0,0.97326153,0.61805572,0.0236639)" /><linearGradient
       inkscape:collect="always"
       xlink:href="#linearGradient1443"
       id="linearGradient1445"
       x1="5.5330153"
       y1="8.9552755"
       x2="5.5335493"
       y2="9.034627"
       gradientUnits="userSpaceOnUse" /><linearGradient
       inkscape:collect="always"
       xlink:href="#linearGradient1616"
       id="linearGradient1618"
       x1="-2.4364731"
       y1="11.019447"
       x2="27.695875"
       y2="11.373425"
       gradientUnits="userSpaceOnUse" /></defs><sodipodi:namedview
     id="namedview190"
     pagecolor="#ffffff"
     bordercolor="#000000"
     borderopacity="0.25"
     inkscape:showpageshadow="2"
     inkscape:pageopacity="0.0"
     inkscape:pagecheckerboard="true"
     inkscape:deskcolor="#d1d1d1"
     showgrid="false"
     inkscape:zoom="16"
     inkscape:cx="20.1875"
     inkscape:cy="14.90625"
     inkscape:window-width="2502"
     inkscape:window-height="1011"
     inkscape:window-x="58"
     inkscape:window-y="32"
     inkscape:window-maximized="1"
     inkscape:current-layer="svg188" /><rect
     style="opacity:1;fill:url(#linearGradient1437);fill-opacity:1;fill-rule:evenodd;stroke:url(#linearGradient1429);stroke-width:1.72283;stroke-linecap:butt;stroke-linejoin:miter;stroke-dasharray:3.44566, 1.72283;stroke-dashoffset:0;stroke-opacity:1;paint-order:stroke markers fill"
     id="rect973"
     width="21.635307"
     height="21.635445"
     x="1.4795409"
     y="0.88501304"
     ry="10.817721" /><path
     fill="currentColor"
     d="m 19.814619,3.2184273 -2.585471,2.5854709 v 0.1931092 l 2.585471,2.5854702 h 3.851386 V 10.728099 H 18.934916 L 17.229148,9.0223277 v 2.7785763 h -1.072807 c -1.184992,0 -2.145618,-0.960625 -2.145619,-2.1456173 V 7.801172 H 10.642111 C 9.970652,7.804962 9.957384,7.7422693 10.170074,8.0997112 l 6.179374,11.2108718 h 1.332308 c 0.592495,0 1.664274,1.071777 1.664274,1.664273 l -2.522232,1.534899 -8.5156529,0.01926 V 21.4562 c 0,-0.592496 1.553124,-2.145617 2.1456199,-2.145617 h 0.992947 L 6.4152442,10.191691 C 4.4844377,10.15902 2.8125026,8.8425357 2.3278387,6.9732626 1.7385246,4.6739825 3.1277124,2.3330319 5.4282582,1.7486782 7.5081419,1.5359201 8.9338911,1.844584 10.124762,4.0269628 l 3.88596,-0.027229 V 2.1456177 C 14.010722,0.96062567 14.971349,1.910968e-7 16.156341,2.1096802e-8 h 1.072807 V 2.7785761 l 1.705768,-1.7057683 h 4.731089 V 3.2184273 H 19.814619 M 6.5010679,3.7548334 c -1.1849931,-3e-7 -2.1456198,0.9606264 -2.1456196,2.1456195 8e-7,1.1849922 0.9606273,2.1456177 2.1456196,2.1456174 1.1849921,2e-7 2.1456186,-0.9606253 2.1456195,-2.1456174 1e-7,-1.1849931 -0.9606265,-2.1456197 -2.1456195,-2.1456195 z"
     id="path29934"
     style="fill:url(#linearGradient1618);fill-opacity:1;stroke:none;stroke-width:0.551391;stroke-linecap:round;stroke-linejoin:bevel;stroke-dasharray:none;stroke-opacity:1"
     sodipodi:nodetypes="cccccccccsscccczzcczzccccccssccccccsssss" /><g
     id="g29523"
     transform="matrix(1.4079864,0,0,1.4080001,-1.407981,-0.23688649)"
     style="fill:#000000;fill-opacity:1"><path
       d="M 6.5,10 H 6 V 8.95 C 7.0121048,8.8443468 7.9580422,8.3971251 8.682,7.682 L 8.15,7.15 C 7.4481006,7.8544889 6.6154131,8.1689376 5.6209447,8.1686013 3.5507908,8.1663967 1.7522046,6.5701539 1.75,4.5 1.75,3.466 2.17,2.529 2.85,1.85 L 2.318,1.318 C 1.4727804,2.1610469 0.99844605,3.3062153 1,4.5 1,6.814 2.753,8.698 5,8.95 V 10 H 4.5 c -0.6666664,0 -0.6666664,1 0,1 h 2 c 0.6666664,0 0.6666664,-1 0,-1 z"
       fill="currentColor"
       id="path29511"
       style="display:none;fill:url(#linearGradient1445);fill-opacity:1"
       sodipodi:nodetypes="scccccccccccssss" /><path
       d="m 5.6209447,7.416937 a 3.0378817,3.0378817 0 1 0 0,-6.0757634 3.0378817,3.0378817 0 0 0 0,6.0757634 z M 4.9586866,2.0520379 5.5577568,2.800572 V 3.8176548 L 6.3026453,5.1676893 H 7.9090772 C 7.7025012,5.7655444 7.2747675,6.2516056 6.7182276,6.5359512 L 5.6209447,5.5942079 H 4.4057921 L 3.2295243,3.9902064 A 2.4193689,2.4193689 0 0 1 4.9586866,2.0520379 Z"
       fill="currentColor"
       id="path29513"
       style="display:none;fill:url(#linearGradient7982);fill-opacity:1;stroke-width:1.21515" /></g><circle
     style="opacity:1;fill:#ffffff;fill-opacity:1;fill-rule:evenodd;stroke:none;stroke-width:13.4199;stroke-linecap:butt;stroke-linejoin:miter;stroke-dasharray:26.0261, 13.013;stroke-dashoffset:0;stroke-opacity:1;paint-order:stroke markers fill"
     id="path1578"
     cx="21.048544"
     cy="5.9288239"
     r="1.2498316" /></svg>
