{
    "asset": {
        "version": "2.0",
        "generator": "Blockbench 4.6.5 glTF exporter"
    },
    "scenes": [{ "nodes": [14], "name": "blockbench_export" }],
    "scene": 0,
    "nodes": [
        {
            "rotation": [0, 0, 0.7071067811865475, 0.7071067811865476],
            "translation": [
                -0.0625, 0.04996843353822905, -0.0062815664617711375
            ],
            "name": "cylinder",
            "mesh": 0
        },
        {
            "rotation": [0, 0, 0.7071067811865475, 0.7071067811865476],
            "translation": [-0.0625, 0.04996843353822905, 0.49371843353822886],
            "name": "cylinder",
            "mesh": 1
        },
        {
            "rotation": [0, 0, 0.7071067811865475, 0.7071067811865476],
            "translation": [-0.0625, 0.04996843353822905, 0.9937184335382289],
            "name": "cylinder",
            "mesh": 2
        },
        {
            "rotation": [0, 0, 0.7071067811865475, 0.7071067811865476],
            "translation": [
                -0.8125, 0.04996843353822905, -0.0062815664617711375
            ],
            "name": "cylinder",
            "mesh": 3
        },
        {
            "rotation": [0, 0, 0.7071067811865475, 0.7071067811865476],
            "translation": [-0.8125, 0.04996843353822905, 0.9937184335382289],
            "name": "cylinder",
            "mesh": 4
        },
        {
            "rotation": [0, 0, 0.7071067811865475, 0.7071067811865476],
            "translation": [-0.8125, 0.04996843353822905, 0.49371843353822886],
            "name": "cylinder",
            "mesh": 5
        },
        {
            "translation": [0.4375, -0.04996843353822905, -0.24371843353822886],
            "name": "wheels",
            "children": [0, 1, 2, 3, 4, 5]
        },
        {
            "rotation": [0.7071067811865475, 0, 0, 0.7071067811865476],
            "translation": [0, 0.3125, -0.5],
            "name": "tube",
            "mesh": 6
        },
        {
            "rotation": [0.7071067811865475, 0, 0, 0.7071067811865476],
            "translation": [
                -2.220446049250313e-16, 0.3124999999999998, -0.8125
            ],
            "name": "front",
            "mesh": 7
        },
        {
            "translation": [5.551115123125783e-17, 0.0625, 0.5000000000000002],
            "name": "trailer",
            "children": [7, 8]
        },
        {
            "rotation": [-0.3826834323650898, 0, 0, 0.9238795325112867],
            "translation": [
                -5.551115123125783e-17, 0.44059343353822905,
                -0.07146239263761195
            ],
            "name": "top",
            "mesh": 8
        },
        {
            "translation": [
                -5.551115123125783e-17, 0.042385912065751485,
                0.09348056339526392
            ],
            "name": "bottom",
            "mesh": 9
        },
        {
            "translation": [
                5.551115123125783e-17, 0.012531566461770947,
                -0.18121843353822892
            ],
            "name": "cabin",
            "children": [10, 11]
        },
        { "name": "body", "children": [9, 12] },
        { "children": [6, 13] }
    ],
    "bufferViews": [
        {
            "buffer": 0,
            "byteOffset": 0,
            "byteLength": 960,
            "target": 34962,
            "byteStride": 12
        },
        {
            "buffer": 0,
            "byteOffset": 960,
            "byteLength": 960,
            "target": 34962,
            "byteStride": 12
        },
        {
            "buffer": 0,
            "byteOffset": 1920,
            "byteLength": 640,
            "target": 34962,
            "byteStride": 8
        },
        { "buffer": 0, "byteOffset": 2560, "byteLength": 192, "target": 34963 },
        {
            "buffer": 0,
            "byteOffset": 2752,
            "byteLength": 960,
            "target": 34962,
            "byteStride": 12
        },
        {
            "buffer": 0,
            "byteOffset": 3712,
            "byteLength": 960,
            "target": 34962,
            "byteStride": 12
        },
        {
            "buffer": 0,
            "byteOffset": 4672,
            "byteLength": 640,
            "target": 34962,
            "byteStride": 8
        },
        { "buffer": 0, "byteOffset": 5312, "byteLength": 192, "target": 34963 },
        {
            "buffer": 0,
            "byteOffset": 5504,
            "byteLength": 960,
            "target": 34962,
            "byteStride": 12
        },
        {
            "buffer": 0,
            "byteOffset": 6464,
            "byteLength": 960,
            "target": 34962,
            "byteStride": 12
        },
        {
            "buffer": 0,
            "byteOffset": 7424,
            "byteLength": 640,
            "target": 34962,
            "byteStride": 8
        },
        { "buffer": 0, "byteOffset": 8064, "byteLength": 192, "target": 34963 },
        {
            "buffer": 0,
            "byteOffset": 8256,
            "byteLength": 960,
            "target": 34962,
            "byteStride": 12
        },
        {
            "buffer": 0,
            "byteOffset": 9216,
            "byteLength": 960,
            "target": 34962,
            "byteStride": 12
        },
        {
            "buffer": 0,
            "byteOffset": 10176,
            "byteLength": 640,
            "target": 34962,
            "byteStride": 8
        },
        {
            "buffer": 0,
            "byteOffset": 10816,
            "byteLength": 192,
            "target": 34963
        },
        {
            "buffer": 0,
            "byteOffset": 11008,
            "byteLength": 960,
            "target": 34962,
            "byteStride": 12
        },
        {
            "buffer": 0,
            "byteOffset": 11968,
            "byteLength": 960,
            "target": 34962,
            "byteStride": 12
        },
        {
            "buffer": 0,
            "byteOffset": 12928,
            "byteLength": 640,
            "target": 34962,
            "byteStride": 8
        },
        {
            "buffer": 0,
            "byteOffset": 13568,
            "byteLength": 192,
            "target": 34963
        },
        {
            "buffer": 0,
            "byteOffset": 13760,
            "byteLength": 960,
            "target": 34962,
            "byteStride": 12
        },
        {
            "buffer": 0,
            "byteOffset": 14720,
            "byteLength": 960,
            "target": 34962,
            "byteStride": 12
        },
        {
            "buffer": 0,
            "byteOffset": 15680,
            "byteLength": 640,
            "target": 34962,
            "byteStride": 8
        },
        {
            "buffer": 0,
            "byteOffset": 16320,
            "byteLength": 192,
            "target": 34963
        },
        {
            "buffer": 0,
            "byteOffset": 16512,
            "byteLength": 1536,
            "target": 34962,
            "byteStride": 12
        },
        {
            "buffer": 0,
            "byteOffset": 18048,
            "byteLength": 1536,
            "target": 34962,
            "byteStride": 12
        },
        {
            "buffer": 0,
            "byteOffset": 19584,
            "byteLength": 1024,
            "target": 34962,
            "byteStride": 8
        },
        {
            "buffer": 0,
            "byteOffset": 20608,
            "byteLength": 384,
            "target": 34963
        },
        {
            "buffer": 0,
            "byteOffset": 20992,
            "byteLength": 960,
            "target": 34962,
            "byteStride": 12
        },
        {
            "buffer": 0,
            "byteOffset": 21952,
            "byteLength": 960,
            "target": 34962,
            "byteStride": 12
        },
        {
            "buffer": 0,
            "byteOffset": 22912,
            "byteLength": 640,
            "target": 34962,
            "byteStride": 8
        },
        {
            "buffer": 0,
            "byteOffset": 23552,
            "byteLength": 192,
            "target": 34963
        },
        {
            "buffer": 0,
            "byteOffset": 23744,
            "byteLength": 768,
            "target": 34962,
            "byteStride": 12
        },
        {
            "buffer": 0,
            "byteOffset": 24512,
            "byteLength": 768,
            "target": 34962,
            "byteStride": 12
        },
        {
            "buffer": 0,
            "byteOffset": 25280,
            "byteLength": 512,
            "target": 34962,
            "byteStride": 8
        },
        {
            "buffer": 0,
            "byteOffset": 25792,
            "byteLength": 192,
            "target": 34963
        },
        {
            "buffer": 0,
            "byteOffset": 25984,
            "byteLength": 768,
            "target": 34962,
            "byteStride": 12
        },
        {
            "buffer": 0,
            "byteOffset": 26752,
            "byteLength": 768,
            "target": 34962,
            "byteStride": 12
        },
        {
            "buffer": 0,
            "byteOffset": 27520,
            "byteLength": 512,
            "target": 34962,
            "byteStride": 8
        },
        { "buffer": 0, "byteOffset": 28032, "byteLength": 192, "target": 34963 }
    ],
    "buffers": [
        {
            "byteLength": 28224,
            "uri": "data:application/octet-stream;base64,"
        }
    ],
    "accessors": [
        {
            "bufferView": 0,
            "componentType": 5126,
            "count": 80,
            "max": [0.125, 0.0625, 0.125],
            "min": [-0.125, -0.0625, -0.125],
            "type": "VEC3"
        },
        {
            "bufferView": 1,
            "componentType": 5126,
            "count": 80,
            "max": [1, 1, 1],
            "min": [-1, -1, -1],
            "type": "VEC3"
        },
        {
            "bufferView": 2,
            "componentType": 5126,
            "count": 80,
            "max": [0.6301491856575012, 0.90625],
            "min": [0.0625, 0.34375],
            "type": "VEC2"
        },
        {
            "bufferView": 3,
            "componentType": 5123,
            "count": 96,
            "max": [79],
            "min": [0],
            "type": "SCALAR"
        },
        {
            "bufferView": 4,
            "componentType": 5126,
            "count": 80,
            "max": [0.125, 0.0625, 0.125],
            "min": [-0.125, -0.0625, -0.125],
            "type": "VEC3"
        },
        {
            "bufferView": 5,
            "componentType": 5126,
            "count": 80,
            "max": [1, 1, 1],
            "min": [-1, -1, -1],
            "type": "VEC3"
        },
        {
            "bufferView": 6,
            "componentType": 5126,
            "count": 80,
            "max": [0.9738991856575012, 0.90625],
            "min": [0, 0],
            "type": "VEC2"
        },
        {
            "bufferView": 7,
            "componentType": 5123,
            "count": 96,
            "max": [79],
            "min": [0],
            "type": "SCALAR"
        },
        {
            "bufferView": 8,
            "componentType": 5126,
            "count": 80,
            "max": [0.125, 0.0625, 0.125],
            "min": [-0.125, -0.0625, -0.125],
            "type": "VEC3"
        },
        {
            "bufferView": 9,
            "componentType": 5126,
            "count": 80,
            "max": [1, 1, 1],
            "min": [-1, -1, -1],
            "type": "VEC3"
        },
        {
            "bufferView": 10,
            "componentType": 5126,
            "count": 80,
            "max": [0.9426491856575012, 0.9375],
            "min": [0, -0.03125],
            "type": "VEC2"
        },
        {
            "bufferView": 11,
            "componentType": 5123,
            "count": 96,
            "max": [79],
            "min": [0],
            "type": "SCALAR"
        },
        {
            "bufferView": 12,
            "componentType": 5126,
            "count": 80,
            "max": [0.125, 0.0625, 0.125],
            "min": [-0.125, -0.0625, -0.125],
            "type": "VEC3"
        },
        {
            "bufferView": 13,
            "componentType": 5126,
            "count": 80,
            "max": [1, 1, 1],
            "min": [-1, -1, -1],
            "type": "VEC3"
        },
        {
            "bufferView": 14,
            "componentType": 5126,
            "count": 80,
            "max": [0.9853340983390808, 1],
            "min": [0, -0.03125],
            "type": "VEC2"
        },
        {
            "bufferView": 15,
            "componentType": 5123,
            "count": 96,
            "max": [79],
            "min": [0],
            "type": "SCALAR"
        },
        {
            "bufferView": 16,
            "componentType": 5126,
            "count": 80,
            "max": [0.125, 0.0625, 0.125],
            "min": [-0.125, -0.0625, -0.125],
            "type": "VEC3"
        },
        {
            "bufferView": 17,
            "componentType": 5126,
            "count": 80,
            "max": [1, 1, 1],
            "min": [-1, -1, -1],
            "type": "VEC3"
        },
        {
            "bufferView": 18,
            "componentType": 5126,
            "count": 80,
            "max": [1.036399245262146, 0.8603340983390808],
            "min": [0.0625, -0.03639918938279152],
            "type": "VEC2"
        },
        {
            "bufferView": 19,
            "componentType": 5123,
            "count": 96,
            "max": [79],
            "min": [0],
            "type": "SCALAR"
        },
        {
            "bufferView": 20,
            "componentType": 5126,
            "count": 80,
            "max": [0.125, 0.0625, 0.125],
            "min": [-0.125, -0.0625, -0.125],
            "type": "VEC3"
        },
        {
            "bufferView": 21,
            "componentType": 5126,
            "count": 80,
            "max": [1, 1, 1],
            "min": [-1, -1, -1],
            "type": "VEC3"
        },
        {
            "bufferView": 22,
            "componentType": 5126,
            "count": 80,
            "max": [0.9738991856575012, 0.9853363037109375],
            "min": [0.03125, -0.03639918938279152],
            "type": "VEC2"
        },
        {
            "bufferView": 23,
            "componentType": 5123,
            "count": 96,
            "max": [79],
            "min": [0],
            "type": "SCALAR"
        },
        {
            "bufferView": 24,
            "componentType": 5126,
            "count": 128,
            "max": [0.375, 0.9375, 0.3125],
            "min": [-0.375, 0, -0.3125],
            "type": "VEC3"
        },
        {
            "bufferView": 25,
            "componentType": 5126,
            "count": 128,
            "max": [1, 1, 1],
            "min": [-1, -1, -1],
            "type": "VEC3"
        },
        {
            "bufferView": 26,
            "componentType": 5126,
            "count": 128,
            "max": [0.6027359962463379, 1],
            "min": [0, 0.265625],
            "type": "VEC2"
        },
        {
            "bufferView": 27,
            "componentType": 5123,
            "count": 192,
            "max": [127],
            "min": [0],
            "type": "SCALAR"
        },
        {
            "bufferView": 28,
            "componentType": 5126,
            "count": 80,
            "max": [0.375, 0.3125, 0.3125],
            "min": [-0.375, 0.25, -0.3125],
            "type": "VEC3"
        },
        {
            "bufferView": 29,
            "componentType": 5126,
            "count": 80,
            "max": [1, 1, 1],
            "min": [-1, -1, -1],
            "type": "VEC3"
        },
        {
            "bufferView": 30,
            "componentType": 5126,
            "count": 80,
            "max": [0.9375, 1],
            "min": [0.1875, 0.15625],
            "type": "VEC2"
        },
        {
            "bufferView": 31,
            "componentType": 5123,
            "count": 96,
            "max": [79],
            "min": [0],
            "type": "SCALAR"
        },
        {
            "bufferView": 32,
            "componentType": 5126,
            "count": 64,
            "max": [0.3002063035964966, 0.03125, 0.3002063035964966],
            "min": [-0.3002063035964966, -0.03125, -0.4877063035964966],
            "type": "VEC3"
        },
        {
            "bufferView": 33,
            "componentType": 5126,
            "count": 64,
            "max": [1, 1, 1],
            "min": [-1, -1, -1],
            "type": "VEC3"
        },
        {
            "bufferView": 34,
            "componentType": 5126,
            "count": 64,
            "max": [0.4375, 1],
            "min": [0, 0.53125],
            "type": "VEC2"
        },
        {
            "bufferView": 35,
            "componentType": 5123,
            "count": 96,
            "max": [63],
            "min": [0],
            "type": "SCALAR"
        },
        {
            "bufferView": 36,
            "componentType": 5126,
            "count": 64,
            "max": [0.3002063035964966, 0.03125, 0.05020630359649658],
            "min": [-0.3002063035964966, -0.03125, -0.4877063035964966],
            "type": "VEC3"
        },
        {
            "bufferView": 37,
            "componentType": 5126,
            "count": 64,
            "max": [1, 1, 1],
            "min": [-1, -1, -1],
            "type": "VEC3"
        },
        {
            "bufferView": 38,
            "componentType": 5126,
            "count": 64,
            "max": [0.7064562439918518, 1],
            "min": [0.03125, 0.3247937560081482],
            "type": "VEC2"
        },
        {
            "bufferView": 39,
            "componentType": 5123,
            "count": 96,
            "max": [63],
            "min": [0],
            "type": "SCALAR"
        }
    ],
    "materials": [
        {
            "pbrMetallicRoughness": {
                "metallicFactor": 0,
                "roughnessFactor": 1,
                "baseColorTexture": { "index": 0 }
            },
            "alphaMode": "MASK",
            "alphaCutoff": 0.05,
            "doubleSided": true
        },
        {
            "pbrMetallicRoughness": {
                "metallicFactor": 0,
                "roughnessFactor": 1,
                "baseColorTexture": { "index": 1 }
            },
            "alphaMode": "MASK",
            "alphaCutoff": 0.05,
            "doubleSided": true
        }
    ],
    "textures": [
        { "sampler": 0, "source": 0, "name": "wheels" },
        { "sampler": 1, "source": 1, "name": "tank_cabin" }
    ],
    "samplers": [
        {
            "magFilter": 9728,
            "minFilter": 9728,
            "wrapS": 33071,
            "wrapT": 33071
        },
        { "magFilter": 9728, "minFilter": 9728, "wrapS": 33071, "wrapT": 33071 }
    ],
    "images": [
        {
            "mimeType": "image/png",
            "uri": "data:image/png;base64,"
        },
        {
            "mimeType": "image/png",
            "uri": "data:image/png;base64,"
        }
    ],
    "meshes": [
        {
            "primitives": [
                {
                    "mode": 4,
                    "attributes": {
                        "POSITION": 0,
                        "NORMAL": 1,
                        "TEXCOORD_0": 2
                    },
                    "indices": 3,
                    "material": 0
                }
            ]
        },
        {
            "primitives": [
                {
                    "mode": 4,
                    "attributes": {
                        "POSITION": 4,
                        "NORMAL": 5,
                        "TEXCOORD_0": 6
                    },
                    "indices": 7,
                    "material": 0
                }
            ]
        },
        {
            "primitives": [
                {
                    "mode": 4,
                    "attributes": {
                        "POSITION": 8,
                        "NORMAL": 9,
                        "TEXCOORD_0": 10
                    },
                    "indices": 11,
                    "material": 0
                }
            ]
        },
        {
            "primitives": [
                {
                    "mode": 4,
                    "attributes": {
                        "POSITION": 12,
                        "NORMAL": 13,
                        "TEXCOORD_0": 14
                    },
                    "indices": 15,
                    "material": 0
                }
            ]
        },
        {
            "primitives": [
                {
                    "mode": 4,
                    "attributes": {
                        "POSITION": 16,
                        "NORMAL": 17,
                        "TEXCOORD_0": 18
                    },
                    "indices": 19,
                    "material": 0
                }
            ]
        },
        {
            "primitives": [
                {
                    "mode": 4,
                    "attributes": {
                        "POSITION": 20,
                        "NORMAL": 21,
                        "TEXCOORD_0": 22
                    },
                    "indices": 23,
                    "material": 0
                }
            ]
        },
        {
            "primitives": [
                {
                    "mode": 4,
                    "attributes": {
                        "POSITION": 24,
                        "NORMAL": 25,
                        "TEXCOORD_0": 26
                    },
                    "indices": 27,
                    "material": 1
                }
            ]
        },
        {
            "primitives": [
                {
                    "mode": 4,
                    "attributes": {
                        "POSITION": 28,
                        "NORMAL": 29,
                        "TEXCOORD_0": 30
                    },
                    "indices": 31,
                    "material": 1
                }
            ]
        },
        {
            "primitives": [
                {
                    "mode": 4,
                    "attributes": {
                        "POSITION": 32,
                        "NORMAL": 33,
                        "TEXCOORD_0": 34
                    },
                    "indices": 35,
                    "material": 0
                }
            ]
        },
        {
            "primitives": [
                {
                    "mode": 4,
                    "attributes": {
                        "POSITION": 36,
                        "NORMAL": 37,
                        "TEXCOORD_0": 38
                    },
                    "indices": 39,
                    "material": 0
                }
            ]
        }
    ]
}
